<svg id="Layer_2" data-name="Layer 2" xmlns="http://www.w3.org/2000/svg" xmlns:xlink="http://www.w3.org/1999/xlink" viewBox="0 0 1096.35 704"><defs><style>.cls-1{fill:none;}.cls-2{clip-path:url(#clip-path);}.cls-3{fill:#bbbdbf;}.cls-4{fill:#231f20;}.cls-5{fill:#f9c288;}.cls-6{fill:#fff;}.cls-7{fill:#b26b13;}</style><clipPath id="clip-path" transform="translate(-65.95 -32)"><rect class="cls-1" x="65.95" y="32" width="1096.36" height="704"/></clipPath></defs><title>undecided_logo_bg</title><g class="cls-2"><path class="cls-3" d="M584.21,736c-99.57-.06-199.6-14.81-294.79-55.59-30.69-13.14-59.12-29.92-84.73-51.44q-112.35-94.4-76.25-236.53c9.95-39.49,27.8-75.31,51.26-108.39,55.17-77.79,128.39-134,213-176C525.33,42.21,665.56,20.06,812.32,38c33.68,4.11,66,13.36,97.63,25.59a66.87,66.87,0,0,0,16.22,3.68C963.91,71.65,996,87.85,1023,114c42.62,41.29,70.63,91.54,86.68,148.25,24.28,85.81,22.92,171.52-3.41,256.84-20.65,66.88-64.2,113.63-126.2,144.09-54.74,26.87-112.88,42.46-173,52C734.32,726.7,661.26,735.35,584.21,736" transform="translate(-65.95 -32)"/><path class="cls-4" d="M871.86,685.75c-2.66-1.24-7-2.72-10.74-5.18s-3.7-6.5-.48-9.92c.78-.83,1.43-1.79,2.13-2.68,2.33-2.92,5.32-4.9,9.06-4.93,6.1-.06,11.18,3.05,15.84,6.48,2.83,2.1,2.76,6.58.19,9.29-3.79,4-8.5,6.48-16,6.94" transform="translate(-65.95 -32)"/><path class="cls-4" d="M924.88,665.54c-3.63-.44-7.34-.54-10.86-1.44-3.22-.81-5.22-3.35-5.68-6.78-.42-3.14,1.2-5,3.81-6.67,2.27-1.44,4.1-3.61,6-5.54A12.84,12.84,0,0,1,929,641.24c4.75.53,7.1,4.22,6.66,8.94-.65,7.12-3.4,12.42-10.78,15.36" transform="translate(-65.95 -32)"/><path class="cls-4" d="M962.3,651c-.22.07-.94.3-1.68.47-5.67,1.33-10.81-1.22-12.24-6.05-1.49-5,1.89-11.34,6.88-13.19a12.59,12.59,0,0,0,4-2.51c3.52-3.29,8.31-4.22,12.17-2.16s5.45,6.2,4.34,11.09c-1.59,6.93-6.26,10.65-13.45,12.35" transform="translate(-65.95 -32)"/><path class="cls-4" d="M823.29,698.52c-3.07-.9-6.32-1.41-9.16-2.78a8.39,8.39,0,0,1-4.89-8.93c.21-1.58,1.55-4.17,2.59-4.29,4.2-.44,6.56-3.73,9.88-5.42,4.08-2.1,8.06-1.5,11.78.83,2.76,1.73,4.72,6.87,3.66,10-1.4,4.14-6.55,10.52-13.86,10.6" transform="translate(-65.95 -32)"/><path class="cls-5" d="M635.43,734.41c-16.9.89-34,1.45-51.22,1.59-99.57-.07-199.6-14.82-294.79-55.58-30.69-13.16-59.11-29.94-84.73-51.46Q92.34,534.58,128.44,392.43c9.95-39.48,27.8-75.3,51.27-108.39,55.16-77.77,128.38-134,213-176,74.29-36.88,151-60,229.8-70.15" transform="translate(-65.95 -32)"/><path class="cls-6" d="M228.85,535.5C198,537.16,160.17,540.66,137,527c-31.18-18.41-69.13-51.65-71-80.38-1.87-28.44,31-76.82,59.85-85.61,91.09-27.74,186.62-51.16,281.91-57.45,127.82-8.43,257.05,3,385.6,1.41,71.78-.87,143.92-7.8,215-17.45,69.62-9.43,128.08,14.68,147.75,68.86,19.43,53.47-7.52,114.34-73.62,134.66-58.59,18-122.66,24.67-184.86,28.26-79.78,4.6-526,8.55-668.8,16.21" transform="translate(-65.95 -32)"/><path class="cls-7" d="M495.8,104.76c.08,6.61-6.49,12.87-13.53,12.87-6,0-10.78-4.21-10.93-9.64-.2-7.75,7.18-12.36,14.27-13,5.45-.52,10.11,4.29,10.19,9.8" transform="translate(-65.95 -32)"/><path class="cls-7" d="M377.79,147.35c7.75,0,11.63,5.48,8.68,12.67-1.8,4.37-4.57,8.07-9.29,9.71a9.87,9.87,0,0,1-10.65-2.24c-3.11-3-3.48-6.67-2.18-10.59,2.07-6.22,6.73-9.51,13.44-9.55" transform="translate(-65.95 -32)"/><path class="cls-7" d="M418.44,136.06c.23,5.74-2.64,9.62-7.78,10.53-8.73,1.55-14-.67-15.87-6.65-1.12-3.63.12-8.28,3.7-9.87,5.06-2.25,9.62-9.07,16-3.69,2.47,2.08,3.33,6.06,4.94,9.17l-1,.51" transform="translate(-65.95 -32)"/><path class="cls-7" d="M459.12,116.21c.07,6.17-7.78,13.4-14.6,13.43a10.34,10.34,0,0,1-10.11-9.85c-.12-5.72,8.18-13.27,14.76-13.45a10,10,0,0,1,9.95,9.87" transform="translate(-65.95 -32)"/><path class="cls-4" d="M244.5,442.09c-.72,15.36-1.91,30.71-3.4,46-.27,2.77-4.78,7.32-7.63,8-5.62-.64-6.57-3.72-7.49-6.39-2.06-6-3.76-12.49-3.58-18.72,1.46-48.43,3.33-96.84,5.29-145.24a47.91,47.91,0,0,1,3.05-14.24c4.19-11.39,16.25-13.27,23.47-3.55a63.2,63.2,0,0,1,7.56,14.2q23.46,58.58,46.62,117.27a15.92,15.92,0,0,0,4.69,7.11c1.88-15.13,3.53-30.3,5.7-45.39,3.36-23.35,6.62-46.73,10.89-69.92a59.2,59.2,0,0,1,9.2-21.52c4.48-6.67,11.83-5.22,13.53,2.69a73.31,73.31,0,0,1,.79,24.24c-3.9,30.52-8.93,60.89-12.74,91.42-2.78,22.39-4.15,45-6.48,67.4-1.11,10.74-7.82,16.6-16.74,14.1a19,19,0,0,1-10.3-8.12A195,195,0,0,1,294.56,475c-14.94-38.51-29.56-77.12-44.31-115.69-1-2.52-2-5-3-7.53-.7.14-1.3,60.38-2.72,90.33" transform="translate(-65.95 -32)"/><path class="cls-4" d="M744.63,471.82c15.73-11.4,30.09-21.59,39.24-37.11a137.46,137.46,0,0,0,19.28-61,63.57,63.57,0,0,0,.07-6.62c-.79-19.88-8.4-28.39-28-31.59-6.52-1.07-13.07-2.1-19.44-3.81-6.88-1.85-8.75-7.33-3.34-11.89,4.77-4,11.21-7.64,17.25-8.35,30.37-3.51,54.83,14.33,58.31,44.53,4.92,42.89-8.16,81.15-37.87,112.28-13.58,14.22-30.71,25.05-46.4,37.19-5.54,4.29-12,6-18.62,2.49-7-3.74-8.54-10.31-8.09-17.67q4.8-78.49,9.59-157c.15-2.44.16-5.48,1.55-7.15,2.37-2.84,5.94-6.82,8.71-6.61s7.21,4.68,7.6,7.72a259.16,259.16,0,0,1,2.42,36.29c-.39,32.56-1.46,65.11-2.26,97.67-.07,2.93,0,5.85,0,10.66" transform="translate(-65.95 -32)"/><path class="cls-4" d="M401.29,480.79c9.14-6,13.12-13.6,16.19-21.71,10.32-27.36,12.78-55.76,10.31-84.67a40.23,40.23,0,0,0-4.11-14.61c-1.38-2.67-5.27-5.59-8.08-5.65-7.1-.12-14.24,1.31-20.63,2,2.13,41.83,4.18,82.47,6.32,124.62m-24.81-44.74c-.45-34.77-.83-61-1.08-87.2a36.5,36.5,0,0,1,1-9.37c1.7-6.64,7.24-8.12,12.89-4.13a9.06,9.06,0,0,0,6.67,1.47c32.23-8.77,48.1.28,53.14,33.25,5.26,34.35,2,68.33-10.94,100.95-7.51,19-21.19,31.57-40.72,37.82-10.18,3.27-17.46-1.65-18-12.21-1.09-23-2.31-46.07-3-60.58" transform="translate(-65.95 -32)"/><path class="cls-4" d="M148.58,471.52a7.9,7.9,0,0,0,12.37-.78,46.31,46.31,0,0,0,7.49-21.39c2.73-24.64,4.78-49.37,6.5-74.11,1-14,.53-28.13,1.08-42.18.45-11.33,5.12-18.34,11.62-18.51s11.72,6.74,12.21,18c1.8,41.14.92,82.24-6.11,122.9a99.57,99.57,0,0,1-11.12,30.86c-12,21.56-33.49,24.88-50.79,7.18a89.2,89.2,0,0,1-20-31.7c-5.63-15.95-9-33-10.91-49.88-3.84-33.58-1.44-67.21,2.63-100.7.86-7.05,2.52-13.4,11.22-13.72,6.66-.24,10.71,4.8,10.92,14.76.35,16.55-.83,33.15.25,49.63,1.68,25.53,4.11,51.06,7.56,76.4,1.23,9,5.81,17.78,10,26.13a32.51,32.51,0,0,0,5.15,7.1" transform="translate(-65.95 -32)"/><path class="cls-4" d="M981.27,429.87c8.87-5.2,17.34-9.16,24.68-14.63,23.17-17.28,30.19-52.42,15.57-77.22-2.21-3.76-6.13-8.13-10-9-9.42-2.15-19.27-2.42-30.26-3.57Zm72.57-65.21c.28,37.85-25.23,72.64-62.26,85.24a147.49,147.49,0,0,0-18,7.88c-9.5,4.73-19.54-1-18.73-11.56,3.14-41,6.78-81.92,10-122.91,1.13-14.59,10.87-19.15,22-19.34,1.94,0,3.87-.05,5.8-.11,37.05-1.16,55.94,16.66,61.19,60.8" transform="translate(-65.95 -32)"/><path class="cls-4" d="M878.57,383.71l28.37,1.91a3.39,3.39,0,0,1,3.17,3.62c-.88,10.08-8.34,12.89-33.26,14.8-.11,15.25-.39,30.64,0,46,0,1.21,4.57,3.56,6.71,3.24,7.88-1.17,15.64-3.25,23.45-5,2.44-.54,4.84-1.31,7.31-1.66,6.05-.83,11.19.9,13.55,6.88,2.27,5.7.53,10.82-4.09,14.86-11,9.67-46.75,14.21-59.77,7.67-9.12-4.58-12.81-12.37-12.69-22.11.21-16.51.52-33,1.16-49.53q1.08-27.76,2.83-55.48c1-16.12,5.78-20.27,21.82-21.22,7.45-.44,14.84-2,22.23-3.16,5-.8,10-.85,12.13,4.61,2.42,6.09-1.74,9.66-6.62,11.57a148.56,148.56,0,0,1-20.69,6.39c-6.65,1.53-3.76,29.19-6,34-.42.88.21,1.81.45,2.58" transform="translate(-65.95 -32)"/><path class="cls-4" d="M492.7,369.56c7.1-.78,20.21-3,26.58.16a4.57,4.57,0,0,1-.35,8.38c-6,2.26-17.27,4.43-23.47,6.78a2.07,2.07,0,0,0-1.32,2.24c2.16,13.76,4.33,28.26,7,42.68.26,1.42,3.59,3.26,5.48,3.24,7.78-.1,15.56-.72,23.31-1.36,6.17-.52,11.19,1.12,13.3,7.31s0,11.58-5.43,15.07a23,23,0,0,1-9.71,3.65,213.37,213.37,0,0,1-24.61,1.43,28.69,28.69,0,0,1-27.78-23.94c-3.63-21.21-6.53-42.56-8.88-63.94a294.07,294.07,0,0,1-1.42-39.82c.33-12.86,5.08-17.73,17.82-20.51,7.11-1.55,14.35-3.49,21.51-3.4,5.62.06,11.41,2.52,16.67,4.9,1.56.71,2.53,5,2,7.24-.36,1.62-3.44,3.11-5.57,3.77-5.51,1.7-11.31,2.49-16.73,4.39-13.21,4.64-11.62,1.59-11.37,15.92.12,6.85,1.07,13.69,1.82,21.42.12,1.14,0,4.52,1.16,4.39" transform="translate(-65.95 -32)"/><path class="cls-4" d="M612.1,453.33c3-3.23,5.84-6.72,9.37-9.25,4.93-3.52,10.44-3.56,15.3.47s6.19,9.7,3.21,14.93c-7.59,13.35-17.26,25.16-31.31,32.06-9.28,4.56-19.22,3.06-25.87-4.66-6.33-7.32-12.63-15.92-15.18-25-10.83-38.73-8.08-77.05,8.24-113.92,3.37-7.62,8.83-14.74,14.72-20.72,9.62-9.79,24-10.82,33.94-3.05,3.19,2.48,5.56,6.68,7,10.58a4,4,0,0,1,.12,2,5.77,5.77,0,0,1-8.36,4.15l-.16-.08c-6.6-3.49-12.79-2.85-16.71,3.41-4.49,7.18-8.87,14.79-11.3,22.83A165.66,165.66,0,0,0,590.19,444c1.47,8.49,5.43,25.83,8.17,24.84.3,1,9-10.43,13.74-15.49" transform="translate(-65.95 -32)"/><path class="cls-4" d="M664.94,333.26c0-2.2,0-4.43.21-6.62.53-5.68,1.46-11.54,8.61-12.16,7.68-.67,10.11,5.3,10.7,11.17,1.91,19.18,3.86,38.4,4.55,57.65.93,25.88.83,51.81.88,77.72,0,5.15,0,11.12-2.49,15.22-2.28,3.76-7.9,7.56-12,7.51-3.62,0-8.14-4.8-10.42-8.58-2-3.2-1.66-8-1.68-12.08-.14-22.06-.07-44.11-.07-66.16.57,0,1.7-42.45,1.71-63.67" transform="translate(-65.95 -32)"/><path class="cls-4" d="M1106.72,405.81a4.23,4.23,0,0,1-7-2.06c-2.47-10.3-2.26-19.58,3.63-28a200,200,0,0,1,22.64-27c6.11-6.08,3.87-11.22,1.19-17.09s-7.47-9.81-13.81-6.93c-7.58,3.41-14.42,8.44-21.64,12.68-1.42.83-2.9,1.59-4.38,2.34a4.24,4.24,0,0,1-5.8-2.15c-.81-1.91-1.45-3.77-1-5.35,4.2-15.57,15.2-24.43,30.51-28.15,14.19-3.44,26.18.72,34,12.65,16,24.53,10.69,39.13-5,53.52-11.52,10.55-21.41,22.88-32.06,34.38-.38.39-.76.79-1.17,1.19" transform="translate(-65.95 -32)"/><path class="cls-4" d="M962.43,509.51c-3.34.16-7.42.5-9.92-.83-3.37-1.81-7.47-5.07-7.67-7.89s3.35-7.53,6.46-8.4c9.84-2.71,20.16-5,30.46-5.63,13.81-.82,27.76.29,41.64.14a212,212,0,0,0,23.23-1.71c7.53-.93,13.83,1.43,16,6.75s-.81,11.21-7.95,13.21a93.7,93.7,0,0,1-20,2.77c-8.62.45-56.82.84-72.24,1.59" transform="translate(-65.95 -32)"/><path class="cls-4" d="M1120.8,449c.07,10.64-7.32,19-16.72,18.8A17.46,17.46,0,0,1,1087,451c-.17-10.25,7.92-19.51,17.24-19.72,9.5-.23,16.46,7.26,16.52,17.78" transform="translate(-65.95 -32)"/><path class="cls-4" d="M685.31,275.38C685,285.86,679,292.4,670,292c-8.29-.41-14-6.86-13.8-15.46.31-10.21,7.52-18.55,15.62-18,7.82.51,13.79,8,13.52,16.91" transform="translate(-65.95 -32)"/></g></svg>